<svg width="64" height="64" viewBox="0 0 64 64" fill="none" xmlns="http://www.w3.org/2000/svg">
<g clip-path="url(#clip0_12_367)">
<path d="M42.6667 8C46.2029 8 49.5943 9.40476 52.0948 11.9052C54.5952 14.4057 56 17.7971 56 21.3333V42.6667C56 46.2029 54.5952 49.5943 52.0948 52.0948C49.5943 54.5952 46.2029 56 42.6667 56H21.3333C17.7971 56 14.4057 54.5952 11.9052 52.0948C9.40476 49.5943 8 46.2029 8 42.6667V21.3333C8 17.7971 9.40476 14.4057 11.9052 11.9052C14.4057 9.40476 17.7971 8 21.3333 8H42.6667Z" fill="#52575D"/>
<path d="M44.6446 19H43.0156V45.6791H44.6446V19Z" fill="#F8F9FC"/>
<path d="M29.2706 26.5096C27.3829 26.5096 25.649 27.1878 24.2578 28.3134V20.8955H20V43.7713H24.2578V42.387C25.649 43.5127 27.3829 44.1908 29.2706 44.1908C33.8569 44.1908 37.5764 40.2337 37.5764 35.3467C37.5764 30.4597 33.8569 26.5026 29.2706 26.5026V26.5096ZM28.7392 40.3735C26.0965 40.3735 23.9571 38.1293 23.9571 35.3607C23.9571 32.5921 26.0965 30.3479 28.7392 30.3479C31.382 30.3479 33.5214 32.5921 33.5214 35.3607C33.5214 38.1293 31.382 40.3735 28.7392 40.3735Z" fill="#F8F9FC"/>
</g>
<defs>
<clipPath id="clip0_12_367">
<rect width="64" height="64" fill="white"/>
</clipPath>
</defs>
</svg>
