<svg width="64" height="64" viewBox="0 0 64 64" fill="none" xmlns="http://www.w3.org/2000/svg">
<g clip-path="url(#clip0_12_364)">
<path d="M42.6667 8C46.2029 8 49.5943 9.40476 52.0948 11.9052C54.5952 14.4057 56 17.7971 56 21.3333V42.6667C56 46.2029 54.5952 49.5943 52.0948 52.0948C49.5943 54.5952 46.2029 56 42.6667 56H21.3333C17.7971 56 14.4057 54.5952 11.9052 52.0948C9.40476 49.5943 8 46.2029 8 42.6667V21.3333C8 17.7971 9.40476 14.4057 11.9052 11.9052C14.4057 9.40476 17.7971 8 21.3333 8H42.6667ZM32 21.3333C29.2634 21.3333 26.6314 22.3852 24.6485 24.2713C22.6656 26.1574 21.4835 28.7334 21.3467 31.4667L21.3333 32C21.3333 34.1097 21.9589 36.172 23.131 37.9261C24.3031 39.6802 25.969 41.0474 27.918 41.8547C29.8671 42.6621 32.0118 42.8733 34.081 42.4617C36.1501 42.0501 38.0507 41.0342 39.5425 39.5425C41.0342 38.0507 42.0501 36.1501 42.4617 34.081C42.8733 32.0118 42.6621 29.8671 41.8547 27.918C41.0474 25.969 39.6802 24.3031 37.9261 23.131C36.172 21.9589 34.1097 21.3333 32 21.3333ZM44 17.3333C43.3468 17.3334 42.7164 17.5732 42.2283 18.0072C41.7402 18.4413 41.4284 19.0393 41.352 19.688L41.3333 20.0267C41.3341 20.7063 41.5943 21.3601 42.0609 21.8543C42.5275 22.3485 43.1652 22.646 43.8437 22.6858C44.5222 22.7256 45.1903 22.5049 45.7116 22.0686C46.2328 21.6324 46.5677 21.0136 46.648 20.3387L46.6667 20C46.6667 19.2928 46.3857 18.6145 45.8856 18.1144C45.3855 17.6143 44.7072 17.3333 44 17.3333Z" fill="#52575D"/>
</g>
<defs>
<clipPath id="clip0_12_364">
<rect width="64" height="64" fill="white"/>
</clipPath>
</defs>
</svg>
