<svg width="62" height="62" viewBox="0 0 62 62" fill="none" xmlns="http://www.w3.org/2000/svg">
<g clip-path="url(#clip0_12_629)">
<path d="M5.16602 23.25C5.16602 30.1014 7.88773 36.6722 12.7324 41.5169C17.5771 46.3616 24.1479 49.0833 30.9994 49.0833C37.8508 49.0833 44.4216 46.3616 49.2663 41.5169C54.111 36.6722 56.8327 30.1014 56.8327 23.25" stroke="#A4E5C2" stroke-width="4" stroke-linecap="round" stroke-linejoin="round"/>
<path d="M31 49.0833C31 42.2319 33.7217 35.6611 38.5664 30.8164C43.4111 25.9717 49.9819 23.25 56.8333 23.25" stroke="#A4E5C2" stroke-width="4" stroke-linecap="round" stroke-linejoin="round"/>
<path d="M5.16602 23.25C8.5585 23.25 11.9178 23.9182 15.052 25.2164C18.1862 26.5147 21.0341 28.4176 23.4329 30.8164C25.8318 33.2153 27.7347 36.0631 29.0329 39.1973C30.3312 42.3316 30.9994 45.6909 30.9994 49.0833" stroke="#A4E5C2" stroke-width="4" stroke-linecap="round" stroke-linejoin="round"/>
<path d="M31 10.3333C33.6034 12.8186 35.6409 15.8355 36.9738 19.1789C38.3067 22.5222 38.9037 26.1135 38.7242 29.7083" stroke="#A4E5C2" stroke-width="4" stroke-linecap="round" stroke-linejoin="round"/>
<path d="M23.2753 29.7083C23.0958 26.1135 23.6928 22.5222 25.0257 19.1789C26.3586 15.8355 28.3961 12.8186 30.9995 10.3333" stroke="#A4E5C2" stroke-width="4" stroke-linecap="round" stroke-linejoin="round"/>
</g>
<defs>
<clipPath id="clip0_12_629">
<rect width="62" height="62" fill="white"/>
</clipPath>
</defs>
</svg>
